<svg preserveAspectRatio="none" overflow="visible" style="display: block;" width="15.62" height="17.3482" viewBox="0 0 15.62 17.3482" fill="none" xmlns="http://www.w3.org/2000/svg">
<g id="Vector">
<path id="Vector_2" d="M0.897321 4.35367H14.7227M6.08184 7.81002V12.9945M9.53819 7.81002V12.9945M1.76141 4.35367L2.6255 14.7227C2.6255 15.1811 2.80757 15.6206 3.13167 15.9447C3.45576 16.2688 3.89533 16.4509 4.35367 16.4509H11.2664C11.7247 16.4509 12.1643 16.2688 12.4884 15.9447C12.8125 15.6206 12.9945 15.1811 12.9945 14.7227L13.8586 4.35367M5.21776 4.35367V1.76141C5.21776 1.53224 5.30879 1.31245 5.47084 1.15041C5.63289 0.988359 5.85267 0.897321 6.08184 0.897321H9.53819C9.76736 0.897321 9.98715 0.988359 10.1492 1.15041C10.3112 1.31245 10.4023 1.53224 10.4023 1.76141V4.35367" stroke="#A6A6A6" stroke-width="1.79464" stroke-linecap="round" stroke-linejoin="round"/>
</g>
</svg>
