<svg width="50" height="50" viewBox="0 0 50 50" fill="none" xmlns="http://www.w3.org/2000/svg">
<rect width="50" height="50" fill="#474747"/>
<g id="&#236;&#149;&#140;&#235;&#166;&#188;">
<rect width="393" height="852" transform="translate(-16 -393)" fill="white"/>
<g id="Frame 2087332482">
<g id="Frame 2087332478">
<g id="Frame 2087332481">
<rect id="Rectangle 240656398" x="0.5" y="0.5" width="49" height="49" rx="11.5" fill="white" stroke="#DFE1E5"/>
<path id="Vector" fill-rule="evenodd" clip-rule="evenodd" d="M35.5166 17.4915C35.8261 17.8059 36 18.2323 36 18.6769C36 19.1215 35.8261 19.5479 35.5166 19.8623L23.0645 32.5091C22.7549 32.8234 22.335 33 21.8973 33C21.4595 33 21.0397 32.8234 20.7301 32.5091L14.504 26.1857C14.3463 26.031 14.2206 25.846 14.134 25.6415C14.0475 25.4369 14.002 25.2169 14.0001 24.9942C13.9982 24.7716 14.0399 24.5508 14.1229 24.3448C14.2059 24.1387 14.3285 23.9515 14.4835 23.7941C14.6385 23.6366 14.8229 23.5121 15.0258 23.4278C15.2286 23.3435 15.446 23.3011 15.6652 23.303C15.8844 23.305 16.1011 23.3512 16.3025 23.4391C16.5039 23.527 16.6861 23.6547 16.8384 23.8149L21.8967 28.9523L33.1812 17.4915C33.3345 17.3357 33.5165 17.2121 33.7169 17.1277C33.9173 17.0434 34.132 17 34.3489 17C34.5658 17 34.7806 17.0434 34.9809 17.1277C35.1813 17.2121 35.3633 17.3357 35.5166 17.4915Z" fill="#49D4B6"/>
</g>
</g>
</g>
</g>
</svg>
